<svg width="16" height="16" viewBox="0 0 16 16" fill="none" xmlns="http://www.w3.org/2000/svg">
<path d="M5.3335 2.66665V10.6666C5.3335 11.0203 5.47397 11.3594 5.72402 11.6095C5.97407 11.8595 6.31321 12 6.66683 12H12.0002C12.3538 12 12.6929 11.8595 12.943 11.6095C13.193 11.3594 13.3335 11.0203 13.3335 10.6666V4.82798C13.3335 4.65035 13.298 4.47452 13.229 4.31081C13.1601 4.1471 13.0592 3.99881 12.9322 3.87465L10.7222 1.71331C10.4731 1.46975 10.1385 1.33336 9.79016 1.33331H6.66683C6.31321 1.33331 5.97407 1.47379 5.72402 1.72384C5.47397 1.97389 5.3335 2.31302 5.3335 2.66665Z" stroke="#310B85" stroke-width="1.33333" stroke-linecap="round" stroke-linejoin="round"/>
<path d="M10.6667 12V13.3333C10.6667 13.6869 10.5263 14.0261 10.2762 14.2761C10.0262 14.5262 9.68704 14.6666 9.33341 14.6666H4.00008C3.64646 14.6666 3.30732 14.5262 3.05727 14.2761C2.80722 14.0261 2.66675 13.6869 2.66675 13.3333V5.99996C2.66675 5.64634 2.80722 5.3072 3.05727 5.05715C3.30732 4.8071 3.64646 4.66663 4.00008 4.66663H5.33341" stroke="#310B85" stroke-width="1.33333" stroke-linecap="round" stroke-linejoin="round"/>
</svg>
