<svg width="22" height="16" viewBox="0 0 22 16" fill="none" xmlns="http://www.w3.org/2000/svg">
<path d="M4.25 0.5C3.25544 0.5 2.30161 0.895088 1.59835 1.59835C0.895088 2.30161 0.5 3.25544 0.5 4.25V5H21.5V4.25C21.5 3.25544 21.1049 2.30161 20.4016 1.59835C19.6984 0.895088 18.7446 0.5 17.75 0.5H4.25ZM21.5 6.5H0.5V11.75C0.5 12.7446 0.895088 13.6984 1.59835 14.4017C2.30161 15.1049 3.25544 15.5 4.25 15.5H17.75C18.7446 15.5 19.6984 15.1049 20.4016 14.4017C21.1049 13.6984 21.5 12.7446 21.5 11.75V6.5ZM14.75 11H17.75C17.9489 11 18.1397 11.079 18.2803 11.2197C18.421 11.3603 18.5 11.5511 18.5 11.75C18.5 11.9489 18.421 12.1397 18.2803 12.2803C18.1397 12.421 17.9489 12.5 17.75 12.5H14.75C14.5511 12.5 14.3603 12.421 14.2197 12.2803C14.079 12.1397 14 11.9489 14 11.75C14 11.5511 14.079 11.3603 14.2197 11.2197C14.3603 11.079 14.5511 11 14.75 11Z" fill="#4511BB"/>
</svg>
