<svg width="22" height="18" viewBox="0 0 22 18" fill="none" xmlns="http://www.w3.org/2000/svg">
<path d="M21.078 5.34699C20.9407 5.20466 20.7742 5.09378 20.59 5.02199V1.64699C20.59 1.45683 20.5145 1.27446 20.38 1.14C20.2455 1.00553 20.0632 0.929993 19.873 0.929993C19.6828 0.929993 19.5005 1.00553 19.366 1.14C19.2315 1.27446 19.156 1.45683 19.156 1.64699V4.84999H18.946C18.6101 3.71817 17.9175 2.72513 16.9715 2.01878C16.0255 1.31242 14.8766 0.930536 13.696 0.929993H8.427C7.24641 0.930696 6.09762 1.31264 5.15164 2.01898C4.20566 2.72531 3.51308 3.71825 3.177 4.84999H2.9V1.64699C2.9 1.45683 2.82446 1.27446 2.69 1.14C2.55553 1.00553 2.37316 0.929993 2.183 0.929993C1.99284 0.929993 1.81047 1.00553 1.676 1.14C1.54154 1.27446 1.466 1.45683 1.466 1.64699V5.03199C1.29114 5.10636 1.13199 5.21325 0.997 5.34699C0.679839 5.66802 0.501373 6.10072 0.5 6.55199V11.448C0.5 11.8994 0.679317 12.3323 0.998504 12.6515C1.31769 12.9707 1.7506 13.15 2.202 13.15H3.158C3.49408 14.2817 4.18666 15.2747 5.13264 15.981C6.07862 16.6873 7.22741 17.0693 8.408 17.07H13.591C14.7716 17.0693 15.9204 16.6873 16.8664 15.981C17.8123 15.2747 18.5049 14.2817 18.841 13.15H19.796C20.2474 13.15 20.6803 12.9707 20.9995 12.6515C21.3187 12.3323 21.498 11.8994 21.498 11.448V6.55199C21.518 6.11199 21.367 5.67999 21.078 5.34699ZM2.996 11.716H2.24C2.20465 11.7164 2.16957 11.7099 2.13678 11.6966C2.10399 11.6834 2.07415 11.6638 2.049 11.639C2.00095 11.5869 1.97388 11.5189 1.973 11.448V6.55199C1.97166 6.51811 1.97702 6.48429 1.98876 6.45247C2.0005 6.42066 2.0184 6.39147 2.04144 6.36658C2.06447 6.34168 2.09219 6.32158 2.123 6.30741C2.15381 6.29324 2.18711 6.28528 2.221 6.28399H2.996C2.99121 6.32552 2.99121 6.36746 2.996 6.40899V11.591C2.99121 11.6325 2.99121 11.6745 2.996 11.716ZM7.308 8.84699V6.88699C7.29534 6.77333 7.30679 6.65828 7.34162 6.54936C7.37645 6.44043 7.43387 6.34008 7.51013 6.25485C7.58638 6.16963 7.67976 6.10145 7.78416 6.05477C7.88857 6.00809 8.00164 5.98396 8.116 5.98396C8.23036 5.98396 8.34343 6.00809 8.44784 6.05477C8.55224 6.10145 8.64562 6.16963 8.72187 6.25485C8.79813 6.34008 8.85555 6.44043 8.89038 6.54936C8.92521 6.65828 8.93666 6.77333 8.924 6.88699V8.84699C8.93666 8.96065 8.92521 9.0757 8.89038 9.18463C8.85555 9.29356 8.79813 9.39391 8.72187 9.47913C8.64562 9.56436 8.55224 9.63254 8.44784 9.67922C8.34343 9.72589 8.23036 9.75002 8.116 9.75002C8.00164 9.75002 7.88857 9.72589 7.78416 9.67922C7.67976 9.63254 7.58638 9.56436 7.51013 9.47913C7.43387 9.39391 7.37645 9.29356 7.34162 9.18463C7.30679 9.0757 7.29534 8.96065 7.308 8.84699ZM13.591 12.509C12.9162 13.1759 12.0057 13.5498 11.057 13.5498C10.1083 13.5498 9.1978 13.1759 8.523 12.509C8.39033 12.376 8.3078 12.2012 8.28945 12.0142C8.2711 11.8273 8.31806 11.6397 8.42234 11.4835C8.52663 11.3272 8.6818 11.2119 8.86149 11.1571C9.04117 11.1024 9.23429 11.1115 9.408 11.183C9.50636 11.2247 9.59542 11.2855 9.67 11.362C10.0446 11.7165 10.5407 11.9141 11.0565 11.9141C11.5723 11.9141 12.0684 11.7165 12.443 11.362C12.5178 11.2857 12.6072 11.2251 12.7057 11.1837C12.8043 11.1423 12.9101 11.121 13.017 11.121C13.1239 11.121 13.2297 11.1423 13.3283 11.1837C13.4268 11.2251 13.5161 11.2857 13.591 11.362C13.6676 11.4376 13.7284 11.5277 13.7699 11.627C13.8114 11.7263 13.8328 11.8329 13.8328 11.9405C13.8328 12.0481 13.8114 12.1547 13.7699 12.254C13.7284 12.3533 13.6676 12.4434 13.591 12.519V12.509ZM14.958 8.81899H13.045C12.8847 8.81873 12.728 8.771 12.5947 8.68182C12.4615 8.59264 12.3576 8.466 12.2962 8.31788C12.2348 8.16975 12.2187 8.00676 12.2498 7.84947C12.2809 7.69217 12.3579 7.5476 12.471 7.43399C12.5466 7.35926 12.6362 7.30027 12.7347 7.26045C12.8333 7.22062 12.9387 7.20075 13.045 7.20199H14.958C15.0918 7.20001 15.2239 7.23138 15.3425 7.29328C15.461 7.35518 15.5623 7.44565 15.6372 7.55652C15.712 7.66739 15.758 7.79516 15.7711 7.92828C15.7842 8.06141 15.7639 8.19569 15.712 8.31899C15.6515 8.46942 15.5474 8.59828 15.413 8.689C15.2786 8.77971 15.1201 8.82812 14.958 8.82799V8.81899ZM20.14 11.439C20.1389 11.5095 20.1118 11.5771 20.064 11.629C20.0388 11.6538 20.009 11.6734 19.9762 11.6866C19.9434 11.6999 19.9083 11.7064 19.873 11.706H19.117C19.1217 11.6648 19.1217 11.6232 19.117 11.582V6.36999C19.1217 6.32879 19.1217 6.28719 19.117 6.24599H19.882C19.916 6.24567 19.9497 6.25234 19.981 6.26558C20.0123 6.27883 20.0406 6.29837 20.064 6.32299C20.112 6.37499 20.14 6.44299 20.14 6.51299V11.439Z" fill="#4511BB"/>
</svg>
